<mxfile host="app.diagrams.net" modified="2022-10-14T08:40:07.138Z" agent="5.0 (Windows NT 10.0; Win64; x64) AppleWebKit/537.36 (KHTML, like Gecko) Chrome/106.0.0.0 Safari/537.36" etag="uNnM3crMDKi_dSLe7rHV" version="20.4.0" type="github">
  <diagram id="R2lEEEUBdFMjLlhIrx00" name="Page-1">
    <mxGraphModel dx="643" dy="341" grid="1" gridSize="10" guides="1" tooltips="1" connect="1" arrows="0" fold="1" page="1" pageScale="1" pageWidth="1169" pageHeight="827" math="0" shadow="0" extFonts="Permanent Marker^https://fonts.googleapis.com/css?family=Permanent+Marker">
      <root>
        <mxCell id="0" />
        <mxCell id="1" parent="0" />
        <mxCell id="6TOTnj2t2x63CBn26Bns-19" style="edgeStyle=orthogonalEdgeStyle;rounded=0;orthogonalLoop=1;jettySize=auto;html=1;exitX=1;exitY=0.5;exitDx=0;exitDy=0;entryX=0;entryY=0.5;entryDx=0;entryDy=0;endArrow=none;endFill=0;" edge="1" parent="1" source="6TOTnj2t2x63CBn26Bns-11" target="6TOTnj2t2x63CBn26Bns-18">
          <mxGeometry relative="1" as="geometry" />
        </mxCell>
        <mxCell id="6TOTnj2t2x63CBn26Bns-11" value="SUCURSAL" style="rounded=1;arcSize=10;whiteSpace=wrap;html=1;align=center;" vertex="1" parent="1">
          <mxGeometry x="440" y="440" width="100" height="40" as="geometry" />
        </mxCell>
        <mxCell id="6TOTnj2t2x63CBn26Bns-22" style="edgeStyle=orthogonalEdgeStyle;rounded=0;orthogonalLoop=1;jettySize=auto;html=1;exitX=0.5;exitY=0;exitDx=0;exitDy=0;entryX=0.5;entryY=1;entryDx=0;entryDy=0;endArrow=none;endFill=0;" edge="1" parent="1" source="6TOTnj2t2x63CBn26Bns-12" target="6TOTnj2t2x63CBn26Bns-21">
          <mxGeometry relative="1" as="geometry" />
        </mxCell>
        <mxCell id="6TOTnj2t2x63CBn26Bns-12" value="EMPLEADOS" style="rounded=1;arcSize=10;whiteSpace=wrap;html=1;align=center;" vertex="1" parent="1">
          <mxGeometry x="440" y="580" width="100" height="40" as="geometry" />
        </mxCell>
        <mxCell id="6TOTnj2t2x63CBn26Bns-13" value="REVISTAS" style="rounded=1;arcSize=10;whiteSpace=wrap;html=1;align=center;" vertex="1" parent="1">
          <mxGeometry x="720" y="440" width="100" height="40" as="geometry" />
        </mxCell>
        <mxCell id="6TOTnj2t2x63CBn26Bns-17" style="edgeStyle=orthogonalEdgeStyle;rounded=0;orthogonalLoop=1;jettySize=auto;html=1;exitX=0.5;exitY=1;exitDx=0;exitDy=0;entryX=0.5;entryY=0;entryDx=0;entryDy=0;endArrow=none;endFill=0;" edge="1" parent="1" source="6TOTnj2t2x63CBn26Bns-14" target="6TOTnj2t2x63CBn26Bns-15">
          <mxGeometry relative="1" as="geometry" />
        </mxCell>
        <mxCell id="6TOTnj2t2x63CBn26Bns-14" value="PERIODISTA" style="rounded=1;arcSize=10;whiteSpace=wrap;html=1;align=center;" vertex="1" parent="1">
          <mxGeometry x="720" y="290" width="100" height="40" as="geometry" />
        </mxCell>
        <mxCell id="6TOTnj2t2x63CBn26Bns-16" style="edgeStyle=orthogonalEdgeStyle;rounded=0;orthogonalLoop=1;jettySize=auto;html=1;exitX=0.5;exitY=1;exitDx=0;exitDy=0;entryX=0.5;entryY=0;entryDx=0;entryDy=0;endArrow=none;endFill=0;" edge="1" parent="1" source="6TOTnj2t2x63CBn26Bns-15" target="6TOTnj2t2x63CBn26Bns-13">
          <mxGeometry relative="1" as="geometry" />
        </mxCell>
        <mxCell id="6TOTnj2t2x63CBn26Bns-15" value="ESCRIBE" style="shape=rhombus;perimeter=rhombusPerimeter;whiteSpace=wrap;html=1;align=center;" vertex="1" parent="1">
          <mxGeometry x="710" y="354" width="120" height="60" as="geometry" />
        </mxCell>
        <mxCell id="6TOTnj2t2x63CBn26Bns-20" style="edgeStyle=orthogonalEdgeStyle;rounded=0;orthogonalLoop=1;jettySize=auto;html=1;exitX=1;exitY=0.5;exitDx=0;exitDy=0;entryX=0;entryY=0.5;entryDx=0;entryDy=0;endArrow=none;endFill=0;" edge="1" parent="1" source="6TOTnj2t2x63CBn26Bns-18" target="6TOTnj2t2x63CBn26Bns-13">
          <mxGeometry relative="1" as="geometry" />
        </mxCell>
        <mxCell id="6TOTnj2t2x63CBn26Bns-18" value="TIENE" style="shape=rhombus;perimeter=rhombusPerimeter;whiteSpace=wrap;html=1;align=center;" vertex="1" parent="1">
          <mxGeometry x="570" y="430" width="120" height="60" as="geometry" />
        </mxCell>
        <mxCell id="6TOTnj2t2x63CBn26Bns-23" style="edgeStyle=orthogonalEdgeStyle;rounded=0;orthogonalLoop=1;jettySize=auto;html=1;exitX=0.5;exitY=0;exitDx=0;exitDy=0;entryX=0.5;entryY=1;entryDx=0;entryDy=0;endArrow=none;endFill=0;" edge="1" parent="1" source="6TOTnj2t2x63CBn26Bns-21" target="6TOTnj2t2x63CBn26Bns-11">
          <mxGeometry relative="1" as="geometry" />
        </mxCell>
        <mxCell id="6TOTnj2t2x63CBn26Bns-21" value="TRABAJA" style="shape=rhombus;perimeter=rhombusPerimeter;whiteSpace=wrap;html=1;align=center;" vertex="1" parent="1">
          <mxGeometry x="430" y="500" width="120" height="60" as="geometry" />
        </mxCell>
      </root>
    </mxGraphModel>
  </diagram>
</mxfile>
